# xmcd
#
# Track frame offsets:
# 150
# 26387
# 48265
# 68514
# 90628
# 110835
# 134121
# 158296
# 177856
# 200752
# 221439
# 240452
# 259124
# 281494
#
# Disc length: 4071 seconds
#
#
# Revision: 16
# Processed by: cddbd v1.5.1PL0 Copyright (c) Steve Scherf et al.
# Submitted via: FreeRIP 2.00 
#
DISCID=c00fe50e
DTITLE=Maná - Grandes Exitos
DYEAR=1999
DGENRE=Latin
TTITLE0=En el muelle de San Blas
TTITLE1=Vivir sin aire
TTITLE2=Oye mi amor
TTITLE3=Te lloré un río
TTITLE4=Cómo te deseo
TTITLE5=Clavado en un bar
TTITLE6=No ha parado de llover
TTITLE7=Déjame entrar
TTITLE8=Cuando los ángeles lloran
TTITLE9=De pies a cabeza
TTITLE10=Perdido en un barco
TTITLE11=Rayando el sol
TTITLE12=Hechicera
TTITLE13=Un lobo por tu amor
EXTD=capitals YEAR: 1999 ID3G: 86
EXTT0=
EXTT1=
EXTT2=
EXTT3=
EXTT4=
EXTT5=
EXTT6=
EXTT7=
EXTT8=
EXTT9=
EXTT10=
EXTT11=
EXTT12=
EXTT13=
PLAYORDER=
